<svg width="106" height="23" viewBox="0 0 106 23" fill="none" xmlns="http://www.w3.org/2000/svg">
<path d="M8.32 10.328C8.66133 10.328 8.928 10.424 9.12 10.616C9.32267 10.808 9.424 11.0747 9.424 11.416C9.424 11.5013 9.41867 11.592 9.408 11.688C9.39733 11.7733 9.376 11.848 9.344 11.912C9.20533 11.8907 9.05067 11.8747 8.88 11.864C8.70933 11.8427 8.50667 11.832 8.272 11.832C7.792 11.832 7.312 11.8747 6.832 11.96C6.352 12.0453 5.89333 12.1147 5.456 12.168C4.976 13.2987 4.58133 14.36 4.272 15.352C3.96267 16.344 3.72267 17.3253 3.552 18.296C3.18933 18.2107 2.86933 18.056 2.592 17.832C2.31467 17.608 2.05333 17.2933 1.808 16.888C1.88267 16.7173 1.97333 16.5147 2.08 16.28C2.18667 16.0347 2.31467 15.7307 2.464 15.368C2.61333 14.9947 2.78933 14.5467 2.992 14.024C3.20533 13.4907 3.456 12.856 3.744 12.12C3.296 11.9707 3.00267 11.7093 2.864 11.336C2.91733 11.2827 3.06667 11.224 3.312 11.16C3.55733 11.0853 3.856 11.0053 4.208 10.92C4.368 10.504 4.50667 10.136 4.624 9.816C4.74133 9.48533 4.848 9.176 4.944 8.888C5.04 8.58933 5.12533 8.30133 5.2 8.024C5.28533 7.736 5.36 7.432 5.424 7.112H5.344C4.93867 7.112 4.608 7.016 4.352 6.824C4.10667 6.632 3.984 6.38133 3.984 6.072C3.984 5.98667 3.99467 5.88533 4.016 5.768C4.048 5.65067 4.08533 5.54933 4.128 5.464C4.33067 5.496 4.528 5.51733 4.72 5.528C4.92267 5.53867 5.184 5.544 5.504 5.544C6.176 5.544 6.80533 5.528 7.392 5.496C7.97867 5.45333 8.50667 5.41067 8.976 5.368C9.456 5.32533 9.86667 5.288 10.208 5.256C10.5493 5.21333 10.8107 5.192 10.992 5.192C11.2373 5.192 11.456 5.32 11.648 5.576C11.84 5.832 11.9893 6.19467 12.096 6.664C11.7547 6.632 11.4773 6.61067 11.264 6.6C11.0613 6.58933 10.88 6.584 10.72 6.584C10.176 6.584 9.67467 6.61067 9.216 6.664C8.768 6.70667 8.34133 6.76 7.936 6.824C7.872 6.92 7.79733 7.04267 7.712 7.192C7.63733 7.34133 7.536 7.55467 7.408 7.832C7.28 8.09867 7.11467 8.45067 6.912 8.888C6.72 9.32533 6.47467 9.88 6.176 10.552C6.592 10.488 6.98667 10.4347 7.36 10.392C7.744 10.3493 8.064 10.328 8.32 10.328ZM15.8738 10.376C15.8311 11.0373 15.7138 11.608 15.5218 12.088C15.3298 12.5573 15.0524 12.9733 14.6898 13.336C14.3378 13.688 13.9058 14.008 13.3938 14.296C12.8818 14.584 12.2844 14.8613 11.6018 15.128C11.6018 15.192 11.5964 15.2613 11.5858 15.336C11.5858 15.4 11.5858 15.4693 11.5858 15.544C11.5858 15.6827 11.5964 15.8267 11.6178 15.976C11.6391 16.1253 11.6764 16.264 11.7298 16.392C11.7831 16.52 11.8578 16.6267 11.9538 16.712C12.0498 16.7867 12.1724 16.824 12.3218 16.824C12.6098 16.824 12.8924 16.76 13.1698 16.632C13.4471 16.504 13.7084 16.3493 13.9538 16.168C14.2098 15.976 14.4444 15.7733 14.6578 15.56C14.8818 15.336 15.0791 15.1333 15.2498 14.952C15.3564 15.048 15.4471 15.1387 15.5218 15.224C15.0418 15.864 14.5138 16.3973 13.9378 16.824C13.3724 17.24 12.8338 17.5067 12.3218 17.624C11.5858 17.5387 11.0098 17.272 10.5938 16.824C10.1884 16.3653 9.98575 15.816 9.98575 15.176C9.98575 14.7387 10.0444 14.296 10.1618 13.848C10.2898 13.3893 10.4604 12.952 10.6738 12.536C10.8978 12.1093 11.1538 11.7093 11.4418 11.336C11.7404 10.9627 12.0551 10.6373 12.3858 10.36C12.7271 10.0827 13.0738 9.864 13.4258 9.704C13.7884 9.544 14.1458 9.464 14.4978 9.464C14.9884 9.528 15.4471 9.832 15.8738 10.376ZM14.7698 10.904C14.4818 10.9467 14.1831 11.064 13.8738 11.256C13.5644 11.448 13.2711 11.704 12.9938 12.024C12.7271 12.344 12.4818 12.7173 12.2578 13.144C12.0338 13.5707 11.8578 14.0293 11.7298 14.52C12.5831 14.0933 13.2924 13.5707 13.8578 12.952C14.4231 12.3227 14.7271 11.64 14.7698 10.904ZM16.5985 15.976C16.5985 15.5067 16.7105 14.8507 16.9345 14.008C17.1585 13.1547 17.4732 12.1627 17.8785 11.032C18.5398 9.22933 19.1585 7.73067 19.7345 6.536C20.3212 5.33067 20.8918 4.392 21.4465 3.72C21.5745 3.74133 21.7292 3.79467 21.9105 3.88C22.1025 3.96533 22.2892 4.06133 22.4705 4.168C22.6518 4.264 22.8118 4.36533 22.9505 4.472C23.0998 4.57867 23.1958 4.664 23.2385 4.728C22.4065 5.70933 21.6758 6.76533 21.0465 7.896C20.4172 9.02667 19.8412 10.3227 19.3185 11.784C18.8705 13.0427 18.5292 14.1787 18.2945 15.192C18.0598 16.1947 17.9425 17.032 17.9425 17.704C17.9425 17.8853 17.9425 17.9973 17.9425 18.04C17.9425 18.0827 17.9478 18.1253 17.9585 18.168C17.8092 18.1467 17.6812 18.1093 17.5745 18.056C17.4678 18.0027 17.3985 17.9387 17.3665 17.864C17.3452 17.8107 17.2865 17.7307 17.1905 17.624C17.0945 17.528 17.0092 17.4533 16.9345 17.4C16.8385 17.336 16.7585 17.1707 16.6945 16.904C16.6305 16.6267 16.5985 16.3173 16.5985 15.976ZM20.3798 15.976C20.3798 15.5067 20.4918 14.8507 20.7158 14.008C20.9398 13.1547 21.2544 12.1627 21.6598 11.032C22.3211 9.22933 22.9398 7.73067 23.5158 6.536C24.1024 5.33067 24.6731 4.392 25.2278 3.72C25.3558 3.74133 25.5104 3.79467 25.6918 3.88C25.8838 3.96533 26.0704 4.06133 26.2518 4.168C26.4331 4.264 26.5931 4.36533 26.7318 4.472C26.8811 4.57867 26.9771 4.664 27.0198 4.728C26.1878 5.70933 25.4571 6.76533 24.8278 7.896C24.1984 9.02667 23.6224 10.3227 23.0998 11.784C22.6518 13.0427 22.3104 14.1787 22.0758 15.192C21.8411 16.1947 21.7238 17.032 21.7238 17.704C21.7238 17.8853 21.7238 17.9973 21.7238 18.04C21.7238 18.0827 21.7291 18.1253 21.7398 18.168C21.5904 18.1467 21.4624 18.1093 21.3558 18.056C21.2491 18.0027 21.1798 17.9387 21.1478 17.864C21.1264 17.8107 21.0678 17.7307 20.9718 17.624C20.8758 17.528 20.7904 17.4533 20.7158 17.4C20.6198 17.336 20.5398 17.1707 20.4758 16.904C20.4118 16.6267 20.3798 16.3173 20.3798 15.976ZM24.193 15.928C24.193 15.832 24.1983 15.7147 24.209 15.576C24.2303 15.4267 24.2623 15.2347 24.305 15C24.3477 14.7547 24.401 14.4613 24.465 14.12C24.5397 13.7787 24.6303 13.368 24.737 12.888C24.7583 12.7813 24.8063 12.6107 24.881 12.376C24.9557 12.1413 25.0517 11.896 25.169 11.64C25.297 11.3733 25.4463 11.1173 25.617 10.872C25.7983 10.6267 26.0117 10.4453 26.257 10.328C26.4383 10.3707 26.6783 10.4827 26.977 10.664C27.2757 10.8347 27.5317 11.0747 27.745 11.384C27.4997 11.6613 27.2917 11.9387 27.121 12.216C26.961 12.4933 26.8117 12.7813 26.673 13.08C26.545 13.3787 26.4223 13.688 26.305 14.008C26.1983 14.328 26.0757 14.664 25.937 15.016C25.8197 15.3147 25.713 15.624 25.617 15.944C25.521 16.2533 25.4677 16.5253 25.457 16.76C25.457 16.952 25.4517 17.0853 25.441 17.16C25.441 17.2453 25.4143 17.288 25.361 17.288C25.3183 17.288 25.233 17.2613 25.105 17.208C24.977 17.1547 24.8437 17.0747 24.705 16.968C24.577 16.8507 24.4597 16.7067 24.353 16.536C24.2463 16.3653 24.193 16.1627 24.193 15.928ZM27.249 8.984C27.249 8.92 27.265 8.824 27.297 8.696C27.2437 8.64267 27.1957 8.56267 27.153 8.456C27.121 8.34933 27.105 8.25333 27.105 8.168C27.105 8.072 27.1157 7.944 27.137 7.784C27.169 7.61333 27.2063 7.432 27.249 7.24C27.2917 7.048 27.345 6.85067 27.409 6.648C27.473 6.43467 27.537 6.24267 27.601 6.072C27.729 6.072 27.8837 6.10933 28.065 6.184C28.257 6.248 28.449 6.33867 28.641 6.456C28.833 6.56267 29.009 6.68533 29.169 6.824C29.329 6.952 29.4517 7.07467 29.537 7.192C29.4197 7.30933 29.265 7.47467 29.073 7.688C28.881 7.89067 28.6943 8.10933 28.513 8.344C28.3317 8.568 28.1663 8.78133 28.017 8.984C27.8677 9.18667 27.7717 9.33067 27.729 9.416C27.601 9.39467 27.489 9.34133 27.393 9.256C27.297 9.16 27.249 9.06933 27.249 8.984ZM26.7903 22.296C26.6409 22.2533 26.5556 22.0933 26.5343 21.816C26.4916 21.6773 26.4596 21.512 26.4383 21.32C26.4276 21.128 26.4223 20.9093 26.4223 20.664C26.4223 20.44 26.4596 20.1307 26.5343 19.736C26.6089 19.352 26.7103 18.9147 26.8383 18.424C26.9769 17.9333 27.1423 17.4053 27.3343 16.84C27.5263 16.264 27.7396 15.6827 27.9743 15.096C28.2623 14.36 28.5129 13.7253 28.7263 13.192C28.9396 12.648 29.1156 12.1787 29.2543 11.784C29.4036 11.3893 29.5209 11.064 29.6063 10.808C29.7023 10.552 29.7769 10.3333 29.8303 10.152C29.8729 10.024 29.9369 9.86933 30.0223 9.688C30.1076 9.50667 30.2036 9.32533 30.3103 9.144C30.4276 8.952 30.5449 8.776 30.6623 8.616C30.7796 8.44533 30.8863 8.31733 30.9823 8.232C31.3556 8.28533 31.7076 8.38133 32.0383 8.52C32.3689 8.65867 32.5716 8.792 32.6463 8.92C32.4969 9.05867 32.3263 9.27733 32.1343 9.576C31.9423 9.864 31.7556 10.184 31.5743 10.536C31.3929 10.8773 31.2276 11.2293 31.0783 11.592C30.9289 11.9547 30.8169 12.2747 30.7423 12.552C30.8489 12.3707 30.9876 12.1733 31.1583 11.96C31.3289 11.7467 31.5903 11.4533 31.9423 11.08C32.3369 10.6747 32.7049 10.3653 33.0463 10.152C33.3983 9.928 33.7023 9.816 33.9583 9.816C34.3636 9.816 34.6943 9.928 34.9503 10.152C35.2169 10.376 35.3503 10.664 35.3503 11.016C35.3503 11.784 35.2223 12.5467 34.9663 13.304C34.7103 14.0507 34.3423 14.728 33.8623 15.336C33.6809 15.5707 33.4676 15.7947 33.2223 16.008C32.9769 16.2213 32.7209 16.4133 32.4543 16.584C32.1876 16.744 31.9263 16.872 31.6703 16.968C31.4143 17.064 31.1849 17.112 30.9823 17.112C30.7903 17.112 30.6196 17.0747 30.4703 17C30.3316 16.9147 30.2356 16.8133 30.1823 16.696C30.5983 16.4507 31.0036 16.1093 31.3983 15.672C31.7929 15.2347 32.1556 14.7333 32.4863 14.168C32.8276 13.592 33.1209 12.9733 33.3663 12.312C33.6223 11.6507 33.8143 10.9787 33.9423 10.296C33.5369 10.5093 33.1689 10.744 32.8383 11C32.5183 11.2453 32.1983 11.5707 31.8783 11.976C31.4943 12.4453 31.1903 12.824 30.9663 13.112C30.7423 13.4 30.5556 13.6453 30.4062 13.848C30.2676 14.0507 30.1503 14.2427 30.0543 14.424C29.9689 14.5947 29.8729 14.808 29.7663 15.064C29.6169 15.4053 29.4409 15.8587 29.2383 16.424C29.0463 16.9787 28.8436 17.6027 28.6303 18.296C28.4276 18.9893 28.2196 19.7253 28.0063 20.504C27.8036 21.2933 27.6063 22.0773 27.4143 22.856C27.2969 22.8347 27.1956 22.7493 27.1103 22.6C27.0249 22.504 26.9609 22.4347 26.9183 22.392C26.8863 22.3493 26.8436 22.3173 26.7903 22.296ZM41.655 10.376C41.6123 11.0373 41.495 11.608 41.303 12.088C41.111 12.5573 40.8337 12.9733 40.471 13.336C40.119 13.688 39.687 14.008 39.175 14.296C38.663 14.584 38.0657 14.8613 37.383 15.128C37.383 15.192 37.3777 15.2613 37.367 15.336C37.367 15.4 37.367 15.4693 37.367 15.544C37.367 15.6827 37.3777 15.8267 37.399 15.976C37.4203 16.1253 37.4577 16.264 37.511 16.392C37.5643 16.52 37.639 16.6267 37.735 16.712C37.831 16.7867 37.9537 16.824 38.103 16.824C38.391 16.824 38.6737 16.76 38.951 16.632C39.2283 16.504 39.4897 16.3493 39.735 16.168C39.991 15.976 40.2257 15.7733 40.439 15.56C40.663 15.336 40.8603 15.1333 41.031 14.952C41.1377 15.048 41.2283 15.1387 41.303 15.224C40.823 15.864 40.295 16.3973 39.719 16.824C39.1537 17.24 38.615 17.5067 38.103 17.624C37.367 17.5387 36.791 17.272 36.375 16.824C35.9697 16.3653 35.767 15.816 35.767 15.176C35.767 14.7387 35.8257 14.296 35.943 13.848C36.071 13.3893 36.2417 12.952 36.455 12.536C36.679 12.1093 36.935 11.7093 37.223 11.336C37.5217 10.9627 37.8363 10.6373 38.167 10.36C38.5083 10.0827 38.855 9.864 39.207 9.704C39.5697 9.544 39.927 9.464 40.279 9.464C40.7697 9.528 41.2283 9.832 41.655 10.376ZM40.551 10.904C40.263 10.9467 39.9643 11.064 39.655 11.256C39.3457 11.448 39.0523 11.704 38.775 12.024C38.5083 12.344 38.263 12.7173 38.039 13.144C37.815 13.5707 37.639 14.0293 37.511 14.52C38.3643 14.0933 39.0737 13.5707 39.639 12.952C40.2043 12.3227 40.5083 11.64 40.551 10.904ZM52.2243 16.088C52.4909 16.5467 52.6243 16.9893 52.6243 17.416C52.6243 17.512 52.6136 17.5973 52.5923 17.672C52.5816 17.7573 52.5656 17.8427 52.5443 17.928C52.3629 17.9067 52.1709 17.8907 51.9683 17.88C51.7763 17.8693 51.5736 17.864 51.3603 17.864C51.1043 17.864 50.8429 17.8693 50.5763 17.88C50.3203 17.9013 50.0323 17.928 49.7123 17.96C49.3923 17.992 49.0349 18.0347 48.6403 18.088C48.2456 18.1413 47.7869 18.2107 47.2643 18.296C47.0189 18.2107 46.7736 18.04 46.5283 17.784C46.2829 17.5387 46.0536 17.24 45.8403 16.888C45.9469 16.6533 46.0803 16.3653 46.2403 16.024C46.4003 15.672 46.5869 15.2507 46.8003 14.76C47.0136 14.2587 47.2483 13.6773 47.5043 13.016C47.7709 12.344 48.0536 11.5707 48.3523 10.696C48.5443 10.12 48.7096 9.61333 48.8483 9.176C48.9869 8.73867 49.1096 8.31733 49.2163 7.912C49.3336 7.496 49.4456 7.064 49.5523 6.616C49.6589 6.168 49.7763 5.65067 49.9043 5.064C50.3309 5.14933 50.6989 5.30933 51.0083 5.544C51.3283 5.768 51.6323 6.09333 51.9203 6.52C51.8349 6.65867 51.7229 6.88267 51.5843 7.192C51.4456 7.50133 51.2803 7.88 51.0883 8.328C50.9069 8.76533 50.7043 9.26667 50.4803 9.832C50.2563 10.3867 50.0216 10.984 49.7763 11.624C49.5416 12.2533 49.3123 12.8453 49.0883 13.4C48.8643 13.9547 48.6616 14.456 48.4803 14.904C48.3096 15.352 48.1709 15.736 48.0643 16.056C47.9576 16.376 47.9043 16.616 47.9043 16.776C48.0749 16.7653 48.2296 16.7547 48.3683 16.744C48.5069 16.7333 48.6509 16.7173 48.8003 16.696C48.9496 16.664 49.1096 16.632 49.2803 16.6C49.4616 16.5573 49.6749 16.504 49.9203 16.44C50.1336 16.3867 50.3309 16.344 50.5123 16.312C50.6936 16.2693 50.8696 16.2373 51.0403 16.216C51.2216 16.184 51.4029 16.1627 51.5843 16.152C51.7763 16.1307 51.9896 16.1093 52.2243 16.088ZM59.2126 10.536C59.3193 10.536 59.442 10.5573 59.5806 10.6C59.73 10.632 59.8633 10.68 59.9806 10.744C60.098 10.7973 60.194 10.856 60.2686 10.92C60.354 10.984 60.3966 11.0427 60.3966 11.096C60.1833 11.544 59.986 11.9973 59.8046 12.456C59.6233 12.904 59.4686 13.336 59.3406 13.752C59.2126 14.168 59.1113 14.5573 59.0366 14.92C58.9726 15.2827 58.9406 15.5973 58.9406 15.864C58.9406 16.1627 58.9726 16.4133 59.0366 16.616C59.1006 16.808 59.2073 16.9467 59.3566 17.032C59.2286 17.1173 59.0633 17.1867 58.8606 17.24C58.658 17.2933 58.4766 17.32 58.3166 17.32C57.7406 17.32 57.4526 16.9253 57.4526 16.136C57.4526 15.528 57.6553 14.696 58.0606 13.64C57.8473 14.1307 57.602 14.5947 57.3246 15.032C57.0473 15.4587 56.7646 15.8373 56.4766 16.168C56.1886 16.4987 55.8953 16.7707 55.5966 16.984C55.3086 17.1867 55.042 17.3093 54.7966 17.352C54.402 17.3307 54.082 17.144 53.8366 16.792C53.5913 16.4293 53.4686 15.9707 53.4686 15.416C53.4686 14.8187 53.5966 14.1893 53.8526 13.528C54.1086 12.8667 54.434 12.2533 54.8286 11.688C55.234 11.1227 55.6713 10.6533 56.1406 10.28C56.61 9.896 57.0633 9.69333 57.5006 9.672C57.6073 9.704 57.7246 9.768 57.8526 9.864C57.9913 9.96 58.1193 10.072 58.2366 10.2C58.3646 10.328 58.4713 10.4613 58.5566 10.6C58.642 10.728 58.69 10.84 58.7006 10.936C58.274 11 57.8313 11.208 57.3726 11.56C56.9246 11.912 56.514 12.3387 56.1406 12.84C55.778 13.3307 55.4793 13.8587 55.2446 14.424C55.01 14.9893 54.8926 15.5173 54.8926 16.008C54.8926 16.2107 54.9673 16.3387 55.1166 16.392C55.426 16.328 55.7833 16.0667 56.1886 15.608C56.594 15.1387 57.0846 14.4187 57.6606 13.448C57.7673 13.256 57.8846 13.0427 58.0126 12.808C58.1513 12.5733 58.29 12.328 58.4286 12.072C58.5673 11.816 58.7006 11.56 58.8286 11.304C58.9673 11.0373 59.0953 10.7813 59.2126 10.536ZM65.4978 16.648C65.2951 16.4773 65.1564 16.264 65.0818 16.008C65.0178 15.752 64.9858 15.5333 64.9858 15.352C64.9858 15.128 65.0124 14.936 65.0658 14.776C65.0231 14.776 64.9271 14.8613 64.7778 15.032C64.6284 15.2027 64.4631 15.4053 64.2818 15.64C64.1111 15.8747 63.9404 16.104 63.7698 16.328C63.5991 16.552 63.4711 16.7173 63.3858 16.824C63.2471 16.9733 63.1138 17.0907 62.9858 17.176C62.8684 17.2613 62.7724 17.3093 62.6978 17.32C62.5271 17.3093 62.3458 17.272 62.1538 17.208C61.9724 17.1547 61.7964 17.0747 61.6258 16.968C61.4658 16.8613 61.3218 16.7333 61.1938 16.584C61.0764 16.4347 60.9964 16.264 60.9538 16.072C60.9538 15.7733 60.9591 15.528 60.9698 15.336C60.9911 15.144 61.0284 14.936 61.0818 14.712C61.1778 14.3067 61.3164 13.848 61.4978 13.336C61.6898 12.824 61.9084 12.3227 62.1538 11.832C62.3991 11.3307 62.6711 10.8667 62.9698 10.44C63.2791 10.0027 63.6044 9.66133 63.9458 9.416C64.0418 9.416 64.1538 9.42667 64.2818 9.448C64.4098 9.45867 64.5378 9.48533 64.6658 9.528C64.8044 9.57067 64.9324 9.624 65.0498 9.688C65.1778 9.74133 65.2844 9.816 65.3698 9.912C65.2738 10.0187 65.0284 10.376 64.6338 10.984C64.2498 11.592 63.8178 12.4667 63.3378 13.608C63.2844 13.7253 63.2204 13.896 63.1458 14.12C63.0711 14.344 62.9964 14.5787 62.9218 14.824C62.8471 15.0693 62.7831 15.3093 62.7298 15.544C62.6871 15.7787 62.6658 15.9653 62.6658 16.104C62.6658 16.1893 62.6764 16.2533 62.6978 16.296C62.7298 16.3387 62.7564 16.3707 62.7778 16.392C62.9378 16.328 63.1404 16.152 63.3858 15.864C63.6311 15.576 63.9724 15.1333 64.4098 14.536C64.5164 14.3867 64.6391 14.216 64.7778 14.024C64.9271 13.832 65.0764 13.6293 65.2258 13.416C65.3751 13.192 65.5138 12.9627 65.6418 12.728C65.7804 12.4933 65.8924 12.2587 65.9778 12.024C66.0204 11.896 66.0738 11.7467 66.1378 11.576C66.2124 11.3947 66.2978 11.208 66.3938 11.016C66.5004 10.824 66.6178 10.632 66.7458 10.44C66.8844 10.2373 67.0444 10.0507 67.2258 9.88C67.3644 9.88 67.5138 9.896 67.6737 9.928C67.8338 9.96 67.9831 10.0027 68.1218 10.056C68.2711 10.0987 68.3991 10.152 68.5058 10.216C68.6124 10.2693 68.6924 10.328 68.7458 10.392C68.5538 10.8613 68.3404 11.3253 68.1058 11.784C67.8711 12.2427 67.6524 12.696 67.4498 13.144C67.2471 13.5813 67.0764 14.0187 66.9378 14.456C66.7991 14.8933 66.7298 15.32 66.7298 15.736C66.7298 15.96 66.7458 16.1573 66.7778 16.328C66.8204 16.488 66.8631 16.6267 66.9058 16.744C66.9484 16.8507 66.9858 16.9413 67.0178 17.016C67.0604 17.0907 67.0818 17.1547 67.0818 17.208C67.0818 17.2187 67.0711 17.2347 67.0498 17.256C67.0391 17.2667 67.0284 17.272 67.0178 17.272C66.9431 17.272 66.8471 17.256 66.7298 17.224C66.6124 17.192 66.4791 17.144 66.3298 17.08C66.1911 17.0267 66.0471 16.9627 65.8978 16.888C65.7591 16.8133 65.6258 16.7333 65.4978 16.648ZM69.9335 10.872C69.8802 10.808 69.8322 10.6747 69.7895 10.472C69.7468 10.2587 69.7255 10.0773 69.7255 9.928C70.0028 9.94933 70.2695 9.97067 70.5255 9.992C70.7815 10.0027 71.0162 10.0133 71.2295 10.024C71.3895 9.704 71.5602 9.38933 71.7415 9.08C71.9335 8.76 72.1148 8.472 72.2855 8.216C72.4668 7.94933 72.6322 7.72533 72.7815 7.544C72.9415 7.36267 73.0642 7.24533 73.1495 7.192C73.2562 7.192 73.3895 7.21333 73.5495 7.256C73.7202 7.288 73.8908 7.336 74.0615 7.4C74.2322 7.45333 74.3868 7.512 74.5255 7.576C74.6642 7.64 74.7602 7.704 74.8135 7.768C74.4935 8.17333 74.2162 8.552 73.9815 8.904C73.7575 9.24533 73.5122 9.64 73.2455 10.088C73.4588 10.088 73.6722 10.0827 73.8855 10.072C74.1095 10.0613 74.3335 10.0453 74.5575 10.024C74.6108 10.0773 74.6535 10.1467 74.6855 10.232C74.7175 10.3067 74.7335 10.3867 74.7335 10.472C74.2108 10.664 73.5762 10.7707 72.8295 10.792C72.5628 11.304 72.3228 11.816 72.1095 12.328C71.9068 12.8293 71.7308 13.3147 71.5815 13.784C71.4428 14.2533 71.3308 14.696 71.2455 15.112C71.1708 15.528 71.1335 15.9013 71.1335 16.232C71.1335 16.7013 71.3095 16.9627 71.6615 17.016C71.9815 16.9733 72.2855 16.8933 72.5735 16.776C72.8615 16.6587 73.1175 16.5093 73.3415 16.328C73.4055 16.424 73.4428 16.504 73.4535 16.568C73.3895 16.664 73.2775 16.776 73.1175 16.904C72.9682 17.032 72.8028 17.1547 72.6215 17.272C72.4402 17.4 72.2642 17.5067 72.0935 17.592C71.9228 17.6773 71.7948 17.7253 71.7095 17.736C71.4428 17.7253 71.1762 17.6667 70.9095 17.56C70.6428 17.4533 70.3975 17.32 70.1735 17.16C69.9602 17 69.7842 16.824 69.6455 16.632C69.5068 16.4293 69.4375 16.232 69.4375 16.04C69.4375 15.784 69.4695 15.464 69.5335 15.08C69.6082 14.6853 69.7095 14.2587 69.8375 13.8C69.9655 13.3413 70.1148 12.8613 70.2855 12.36C70.4562 11.8587 70.6428 11.3627 70.8455 10.872H69.9335ZM76.5025 17.56C75.8945 17.496 75.4092 17.2293 75.0465 16.76C74.6838 16.2907 74.5025 15.6933 74.5025 14.968C74.5025 14.5413 74.5665 14.0987 74.6945 13.64C74.8225 13.1813 75.0038 12.7387 75.2385 12.312C75.4732 11.8747 75.7505 11.464 76.0705 11.08C76.3905 10.696 76.7372 10.3653 77.1105 10.088C77.6972 9.65067 78.2465 9.432 78.7585 9.432C79.0998 9.61333 79.4358 9.992 79.7665 10.568C79.8198 10.568 79.8678 10.568 79.9105 10.568C79.9532 10.5573 80.0012 10.552 80.0545 10.552C80.6198 10.552 80.9025 11.0533 80.9025 12.056C80.9025 12.728 80.7905 13.368 80.5665 13.976C80.3532 14.5733 80.0492 15.1173 79.6545 15.608C79.2705 16.0987 78.8065 16.5147 78.2625 16.856C77.7292 17.1867 77.1425 17.4213 76.5025 17.56ZM77.3185 12.52C77.1372 12.7653 76.9665 13.032 76.8065 13.32C76.6465 13.608 76.5078 13.9013 76.3905 14.2C76.2732 14.488 76.1825 14.7707 76.1185 15.048C76.0545 15.3147 76.0225 15.5547 76.0225 15.768C76.0225 16.024 76.0652 16.2693 76.1505 16.504C76.2358 16.7387 76.3318 16.872 76.4385 16.904C76.9185 16.7973 77.3558 16.6 77.7505 16.312C78.1558 16.0133 78.5025 15.6453 78.7905 15.208C79.0892 14.7707 79.3185 14.2747 79.4785 13.72C79.6492 13.1653 79.7345 12.5733 79.7345 11.944C79.7345 11.6667 79.7185 11.448 79.6865 11.288C79.6545 11.128 79.6012 10.9893 79.5265 10.872C79.0572 11.0107 78.6358 11.2347 78.2625 11.544C77.8998 11.8533 77.5852 12.1787 77.3185 12.52ZM84.269 9.24C84.5463 9.32533 84.8077 9.51733 85.053 9.816C85.2983 10.104 85.4797 10.424 85.597 10.776C85.4797 11.064 85.2983 11.4107 85.053 11.816C84.8077 12.2213 84.5623 12.6373 84.317 13.064C84.0717 13.48 83.8477 13.88 83.645 14.264C83.453 14.6373 83.341 14.9467 83.309 15.192C83.4797 15.0107 83.6663 14.8027 83.869 14.568C84.0823 14.3227 84.285 14.0827 84.477 13.848C84.6797 13.6027 84.8663 13.384 85.037 13.192C85.2077 12.9893 85.341 12.84 85.437 12.744C85.6397 12.5307 85.8797 12.2853 86.157 12.008C86.4343 11.72 86.7223 11.4533 87.021 11.208C87.3303 10.952 87.6397 10.7387 87.949 10.568C88.2583 10.3867 88.541 10.296 88.797 10.296C89.0743 10.296 89.3037 10.392 89.485 10.584C89.677 10.7653 89.8263 10.9573 89.933 11.16C89.933 11.1813 89.8903 11.2133 89.805 11.256C89.7303 11.288 89.6183 11.3893 89.469 11.56C89.3197 11.752 89.149 12.0187 88.957 12.36C88.7757 12.6907 88.5943 13.0533 88.413 13.448C88.2423 13.832 88.0983 14.2267 87.981 14.632C87.8637 15.0373 87.805 15.4053 87.805 15.736C87.805 16.0027 87.837 16.1733 87.901 16.248C87.9757 16.3227 88.077 16.36 88.205 16.36C88.3223 16.36 88.445 16.3333 88.573 16.28C88.701 16.2267 88.8023 16.2 88.877 16.2C88.9197 16.2213 88.9517 16.2693 88.973 16.344C89.005 16.408 89.021 16.4667 89.021 16.52C88.9357 16.5947 88.8343 16.6693 88.717 16.744C88.5997 16.8187 88.477 16.888 88.349 16.952C88.221 17.016 88.093 17.0693 87.965 17.112C87.8477 17.1547 87.741 17.176 87.645 17.176C87.3357 17.176 87.0797 17.128 86.877 17.032C86.685 16.9467 86.5303 16.8293 86.413 16.68C86.3063 16.5307 86.2317 16.3547 86.189 16.152C86.1463 15.9387 86.125 15.7147 86.125 15.48C86.125 15.352 86.1357 15.208 86.157 15.048C86.1783 14.888 86.221 14.7013 86.285 14.488C86.349 14.264 86.4397 14.0027 86.557 13.704C86.6743 13.3947 86.8237 13.0267 87.005 12.6C86.9837 12.6 86.8397 12.6747 86.573 12.824C86.3063 12.9733 86.0183 13.2027 85.709 13.512C85.2077 13.992 84.7543 14.4667 84.349 14.936C83.9543 15.4053 83.549 15.928 83.133 16.504C82.8983 16.8347 82.6903 17.112 82.509 17.336C82.3383 17.5707 82.189 17.7253 82.061 17.8C81.837 17.672 81.6717 17.4907 81.565 17.256C81.4583 17.032 81.3783 16.7973 81.325 16.552C81.325 16.3493 81.3517 16.0933 81.405 15.784C81.469 15.4747 81.549 15.1333 81.645 14.76C81.7517 14.376 81.8797 13.976 82.029 13.56C82.1783 13.144 82.3437 12.728 82.525 12.312C82.9303 11.3733 83.2983 10.6373 83.629 10.104C83.9703 9.57067 84.1837 9.28267 84.269 9.24Z" fill="rgb(228 228 231)"/>
<path d="M10.5 19C10.5 19 152.67 32.5 89.5 3.5" stroke="rgb(228 228 231)" stroke-width="0.5" stroke-linecap="round"/>
</svg>
